<svg xmlns="http://www.w3.org/2000/svg" width="512" height="512" viewBox="0 0 512 512">
  <rect width="512" height="512" rx="112" fill="#1e7e61"/>
  <path d="M120 309h24l27-75c9-23 28-37 52-37h101c24 0 43 14 52 37l27 75h23c12 0 21 9 21 21v48c0 12-9 21-21 21h-21v22c0 17-14 31-31 31s-31-14-31-31v-22H169v22c0 17-14 31-31 31s-31-14-31-31v-22H86c-12 0-21-9-21-21v-48c0-12 9-21 21-21h34z" fill="#fffaf0"/>
  <path d="M190 242h132c12 0 20 6 24 17l20 50H146l20-50c4-11 12-17 24-17z" fill="#d7efe7"/>
  <circle cx="157" cy="352" r="29" fill="#18211c"/>
  <circle cx="355" cy="352" r="29" fill="#18211c"/>
  <path d="M221 125h70c18 0 32 14 32 32v20H189v-20c0-18 14-32 32-32z" fill="#fffaf0"/>
</svg>
